<?xml version="1.0" standalone="no"?>
<!DOCTYPE svg PUBLIC "-//W3C//DTD SVG 20010904//EN"
 "http://www.w3.org/TR/2001/REC-SVG-20010904/DTD/svg10.dtd">
<svg version="1.0" xmlns="http://www.w3.org/2000/svg"
 width="700.000000pt" height="700.000000pt" viewBox="0 0 700.000000 700.000000"
 preserveAspectRatio="xMidYMid meet">
<metadata>
Created by potrace 1.11, written by Peter Selinger 2001-2013
</metadata>
<g transform="translate(0.000000,700.000000) scale(0.100000,-0.100000)"
fill="#000000" stroke="none">
<path d="M625 6866 c-45 -21 -562 -545 -570 -578 -4 -16 -4 -40 0 -55 4 -19
149 -171 433 -456 l427 -427 -262 -263 c-144 -144 -267 -274 -272 -289 -22
-59 -6 -85 158 -251 86 -88 168 -165 183 -173 36 -19 78 -18 108 2 14 9 140
131 280 270 l255 254 75 -75 c88 -89 78 -87 297 -50 174 31 340 69 513 120
127 38 309 102 322 114 4 4 -116 130 -267 281 l-275 275 264 265 c290 291 296
300 261 373 -9 19 -85 102 -169 185 -155 154 -186 174 -246 164 -16 -3 -120
-99 -293 -271 l-267 -265 -428 427 c-235 235 -435 427 -442 427 -8 0 -24 2
-35 5 -11 3 -33 -1 -50 -9z"/>
<path d="M6285 6864 c-16 -8 -218 -202 -447 -432 l-418 -417 -267 266 c-173
172 -277 268 -293 271 -60 10 -91 -10 -246 -164 -84 -83 -160 -166 -169 -185
-35 -73 -29 -82 261 -373 l264 -265 -280 -280 c-201 -201 -276 -282 -266 -287
8 -4 64 -26 126 -48 224 -80 550 -159 810 -195 l114 -15 81 80 80 80 255 -256
c140 -140 267 -262 282 -270 34 -18 72 -18 106 0 15 8 97 85 183 173 164 166
180 192 158 251 -5 15 -128 145 -272 289 l-262 263 427 427 c284 285 429 437
433 456 4 15 4 39 0 55 -8 34 -527 558 -572 578 -41 18 -51 17 -88 -2z"/>
<path d="M3423 5230 c-17 -10 -65 -43 -105 -72 -190 -140 -466 -295 -658 -371
-207 -83 -719 -222 -928 -252 -125 -18 -155 -28 -177 -61 -29 -45 -18 -685 20
-1109 48 -526 128 -874 273 -1175 117 -244 250 -444 407 -608 219 -230 463
-409 980 -717 260 -156 242 -155 456 -28 787 467 1066 708 1323 1146 219 372
318 724 380 1352 34 341 55 1054 33 1115 -17 48 -56 67 -182 85 -199 29 -674
153 -880 230 -199 74 -531 258 -720 398 -130 97 -159 106 -222 67z m-362
-1414 c186 -33 299 -143 319 -310 10 -83 -4 -186 -34 -243 -23 -46 -85 -113
-135 -146 l-23 -15 39 -21 c51 -26 99 -80 113 -128 6 -21 15 -118 20 -216 11
-201 20 -245 55 -279 14 -12 25 -31 25 -40 0 -16 -12 -18 -120 -18 -119 0
-121 0 -130 25 -5 14 -14 107 -20 207 -13 232 -22 270 -70 318 -54 54 -96 60
-395 60 l-255 0 0 -305 0 -305 -100 0 -100 0 0 715 0 715 368 0 c263 -1 388
-5 443 -14z m1358 3 c180 -31 296 -149 321 -327 29 -209 -77 -408 -248 -463
-60 -20 -94 -23 -339 -27 l-273 -4 0 -299 0 -299 -100 0 -100 0 0 715 0 715
337 0 c205 0 362 -4 402 -11z"/>
<path d="M2450 3421 l0 -241 257 0 c298 0 350 9 413 69 44 42 60 90 60 181 -1
108 -50 183 -138 211 -23 7 -141 14 -314 16 l-278 5 0 -241z"/>
<path d="M3880 3415 l0 -247 238 4 c216 3 242 6 293 26 95 38 131 98 131 219
0 116 -46 188 -142 223 -23 8 -119 14 -277 18 l-243 4 0 -247z"/>
<path d="M1122 1690 c-264 -258 -491 -487 -505 -507 -43 -63 -397 -913 -397
-954 0 -27 8 -45 29 -68 51 -54 67 -50 573 135 249 91 465 170 480 176 15 5
176 167 360 361 183 193 368 389 411 434 l79 82 -81 90 c-161 180 -305 395
-406 609 -30 61 -56 112 -59 112 -3 0 -221 -211 -484 -470z"/>
<path d="M5321 2068 c-95 -207 -274 -475 -425 -635 l-77 -82 401 -423 c220
-233 418 -433 438 -445 20 -12 249 -99 507 -193 466 -170 470 -172 509 -158
48 16 80 57 79 101 0 27 -304 767 -376 917 -12 25 -51 74 -87 110 -144 144
-918 900 -923 900 -2 0 -23 -42 -46 -92z"/>
</g>
</svg>
