<?xml version="1.0"?>
<svg version="1.1" xmlns="http://www.w3.org/2000/svg" xmlns:xlink="http://www.w3.org/1999/xlink" width="500" height="500">
    <desc iVinci="yes" version="4.6" gridStep="20" showGrid="no" snapToGrid="no" codePlatform="0"/>
    <g id="Layer1" name="Layer 1" opacity="1">
        <g id="Shape1">
            <desc shapeID="1" type="0" basicInfo-basicType="0" basicInfo-roundedRectRadius="12" basicInfo-polygonSides="6" basicInfo-starPoints="5" bounding="rect(-95.9946,-82.8665,191.989,165.733)" text="" font-familyName="" font-pixelSize="20" font-bold="0" font-underline="0" font-alignment="1" strokeStyle="0" markerStart="0" markerEnd="0" shadowEnabled="0" shadowOffsetX="0" shadowOffsetY="2" shadowBlur="4" shadowOpacity="160" blurEnabled="0" blurRadius="4" transform="matrix(2.6076,0,0,2.6076,250.316,229.211)" pers-center="0,0" pers-size="0,0" pers-start="0,0" pers-end="0,0" locked="0" mesh="" flag=""/>
            <path id="shapePath1" d="M490.203,13.128 C490.192,13.128 490.179,13.128 490.166,13.128 C484.424,13.1462 479.778,17.8034 479.77,23.5453 L479.77,24.8335 C479.295,70.1562 435.083,146.496 418.084,172.098 C400.702,198.268 377.424,210.416 363.99,215.579 C360.493,192.875 349.491,147.161 316.717,132.783 L315.593,132.29 C297.1,124.201 273.882,119.748 250.223,119.748 C226.561,119.748 203.343,124.201 184.824,132.301 L183.705,132.791 C150.944,147.164 139.947,192.875 136.451,215.577 C123.001,210.414 99.7329,198.262 82.3559,172.098 C65.3752,146.528 21.2285,70.2031 20.8608,24.6823 L20.8608,23.5584 C20.8608,17.8139 16.2167,13.1515 10.4721,13.128 C10.4591,13.128 10.4434,13.128 10.4304,13.128 C4.70673,13.128 0.046936,17.746 1.52588e-05,23.4776 L1.52588e-05,192.064 C1.52588e-05,330.676 111.399,444.271 248.324,445.286 L250.22,445.293 C250.228,445.293 250.225,445.293 250.233,445.293 C317.063,445.293 379.901,419.267 427.154,372.009 C474.414,324.749 500.438,261.911 500.438,195.084 L500.628,24.9404 C500.631,24.4502 500.633,23.9626 500.628,23.4723 C500.586,17.7487 495.929,13.128 490.203,13.128 M309.41,301.072 C304.831,306.569 298.651,309.362 290.51,309.602 C289.955,309.617 289.415,309.625 288.886,309.625 L288.88,309.625 C281.337,309.625 277.832,307.954 277.123,306.525 C274.453,301.135 282.335,284.141 291.159,272.558 C293.572,269.406 293.983,265.158 292.229,261.601 C290.471,258.042 286.846,255.789 282.878,255.789 L217.563,255.789 C213.596,255.789 209.977,258.042 208.22,261.596 C206.462,265.15 206.871,269.398 209.276,272.55 C218.11,284.141 225.996,301.135 223.325,306.525 C222.616,307.956 219.109,309.625 211.56,309.625 C211.031,309.625 210.486,309.617 209.93,309.602 C201.789,309.362 195.609,306.572 191.03,301.072 C178.422,285.927 180.097,253.841 181.802,242.766 C181.833,242.566 181.859,242.365 181.88,242.161 C181.914,241.825 185.698,208.15 204.897,201.652 C224.564,194.99 242.061,186.815 250.22,182.807 C258.379,186.812 275.876,194.99 295.543,201.652 C311.611,207.092 317.606,232.756 318.56,242.161 C318.578,242.357 318.607,242.563 318.636,242.758 C320.344,253.841 322.018,285.93 309.41,301.072 Z" style="stroke:none;fill-rule:nonzero;fill:#333333;fill-opacity:1;"/>
        </g>
    </g>
</svg>
