<?xml version="1.0" standalone="no"?>
<!DOCTYPE svg PUBLIC "-//W3C//DTD SVG 20010904//EN"
 "http://www.w3.org/TR/2001/REC-SVG-20010904/DTD/svg10.dtd">
<svg version="1.0" xmlns="http://www.w3.org/2000/svg"
 width="1000.000000pt" height="1000.000000pt" viewBox="0 0 1000.000000 1000.000000"
 preserveAspectRatio="xMidYMid meet">
<metadata>
Created by potrace 1.14, written by Peter Selinger 2001-2017
</metadata>
<g transform="translate(0.000000,1000.000000) scale(0.100000,-0.100000)"
fill="#000000" stroke="none">
<path d="M138 9325 c-47 -17 -95 -60 -116 -105 -16 -32 -17 -166 -17 -1880 0
-1629 3 -1983 20 -2081 2 -13 6 -51 9 -84 4 -33 9 -78 12 -100 3 -22 7 -49 8
-60 3 -20 15 -95 20 -125 2 -8 6 -33 10 -55 4 -22 12 -60 17 -85 5 -25 12 -55
14 -67 3 -13 7 -33 10 -45 2 -13 9 -44 15 -69 6 -26 12 -53 13 -60 2 -8 5 -18
8 -24 4 -5 12 -35 18 -65 7 -30 16 -64 21 -75 4 -11 14 -42 21 -70 6 -27 15
-54 19 -60 4 -5 10 -26 14 -45 3 -19 12 -47 20 -61 7 -14 16 -38 20 -54 11
-44 113 -297 158 -395 101 -216 205 -413 284 -536 19 -29 34 -58 34 -64 0 -5
5 -10 10 -10 6 0 10 -4 10 -9 0 -12 154 -241 217 -321 6 -8 41 -52 77 -98 36
-45 66 -87 66 -92 0 -6 4 -10 9 -10 4 0 29 -26 54 -57 25 -32 71 -84 101 -117
31 -32 56 -60 56 -61 0 -5 163 -167 241 -240 111 -105 154 -142 269 -235 58
-46 106 -88 108 -92 2 -5 10 -8 18 -8 8 0 14 -3 14 -8 0 -4 18 -18 40 -32 22
-14 40 -28 40 -32 0 -5 6 -8 14 -8 8 0 16 -4 18 -8 4 -12 244 -172 257 -172 6
0 11 -4 11 -10 0 -5 7 -10 15 -10 8 0 15 -4 15 -10 0 -5 6 -10 13 -11 6 0 32
-14 57 -29 25 -16 61 -38 80 -48 52 -27 83 -46 100 -59 8 -6 18 -12 22 -13 17
-2 45 -14 68 -31 14 -9 30 -18 35 -20 6 -1 60 -26 122 -55 62 -29 165 -74 230
-99 65 -26 127 -50 138 -55 22 -9 54 -19 70 -21 6 0 19 -6 30 -12 11 -6 25
-12 30 -13 6 -1 29 -9 53 -18 23 -8 42 -13 42 -9 0 3 6 1 13 -5 10 -8 79 -31
112 -36 6 -1 16 -5 23 -9 6 -5 12 -5 12 -1 0 3 7 1 15 -6 8 -7 15 -10 15 -7 0
3 22 -1 49 -9 72 -21 273 -66 293 -66 10 1 20 -4 23 -9 4 -5 10 -7 15 -4 5 3
28 1 52 -4 24 -5 59 -12 78 -14 19 -3 71 -11 115 -17 44 -7 100 -14 125 -16
117 -11 151 -14 235 -19 131 -9 492 -9 620 -1 170 11 171 11 335 32 19 3 49 6
65 8 38 4 124 17 150 23 11 2 31 6 45 9 14 2 48 9 75 14 28 5 61 11 75 14 14
2 61 13 106 25 45 11 90 22 100 24 10 2 26 7 35 11 9 4 27 8 41 10 13 1 29 6
36 10 7 4 24 9 38 12 31 6 287 90 329 109 17 7 41 16 55 20 14 4 39 13 55 20
17 8 59 26 95 40 62 25 160 70 260 118 25 12 48 26 51 30 3 5 9 8 13 8 6 -1
122 58 156 78 8 6 67 40 130 77 134 79 211 128 261 167 20 15 39 27 44 27 4 0
22 12 40 28 18 15 52 41 76 57 158 112 373 299 569 495 120 120 225 234 270
291 8 11 32 38 53 62 21 23 46 54 55 69 9 16 20 28 24 28 4 0 8 7 8 15 0 8 4
15 8 15 10 0 182 236 182 249 0 5 3 11 8 13 8 3 152 224 152 233 0 2 15 28 33
57 18 29 39 67 47 83 8 17 17 32 21 35 9 9 149 298 149 309 0 6 5 11 12 11 6
0 9 3 5 6 -3 4 0 19 9 35 8 16 14 30 13 31 -2 2 4 14 11 28 8 14 15 27 15 30
1 3 6 16 12 30 22 50 61 153 64 168 1 4 13 36 26 72 14 36 26 70 28 75 1 6 4
17 8 25 5 15 43 140 72 240 9 30 18 70 21 88 2 18 9 43 16 55 6 12 11 23 10
25 -1 1 -2 3 -1 5 0 1 2 13 4 27 2 14 15 81 29 150 29 146 36 183 41 230 17
150 22 185 25 185 10 0 13 400 16 2081 l5 1980 -23 34 c-91 135 -285 125 -358
-19 -16 -31 -23 -65 -26 -125 -3 -96 -12 -194 -20 -239 -3 -18 -7 -43 -9 -57
-2 -14 -6 -36 -9 -50 -7 -33 -15 -70 -21 -97 -3 -13 -7 -33 -11 -45 -3 -13 -7
-34 -10 -47 -3 -14 -7 -28 -10 -33 -3 -4 -7 -17 -9 -28 -2 -11 -16 -60 -31
-108 -15 -48 -28 -89 -29 -92 -10 -37 -53 -158 -76 -215 -7 -16 -13 -34 -13
-40 -1 -5 -9 -25 -19 -42 -9 -18 -18 -36 -18 -40 -3 -21 -66 -173 -117 -285
-22 -47 -38 -89 -34 -92 3 -3 0 -6 -6 -6 -7 0 -12 -4 -12 -10 0 -5 -34 -78
-75 -163 -41 -84 -75 -158 -75 -164 0 -6 -4 -13 -8 -15 -5 -1 -22 -30 -38 -63
-73 -145 -174 -332 -249 -460 -32 -55 -66 -113 -75 -130 -34 -60 -193 -320
-199 -325 -3 -3 -12 -16 -19 -30 -18 -36 -130 -191 -177 -246 -22 -25 -42 -50
-46 -55 -3 -5 -42 -46 -86 -92 -70 -72 -117 -114 -206 -187 -10 -8 -28 -23
-40 -33 -12 -11 -53 -40 -92 -65 -38 -26 -71 -50 -73 -54 -2 -5 -8 -8 -13 -8
-5 0 -37 -17 -71 -38 -35 -21 -78 -44 -95 -51 -18 -7 -33 -18 -33 -24 0 -6 -3
-8 -6 -5 -3 4 -42 -11 -86 -32 -80 -37 -104 -41 -105 -17 -1 29 -12 97 -16
104 -3 4 -8 28 -11 53 -3 25 -10 60 -15 78 -5 17 -7 32 -4 32 3 0 0 6 -6 13
-6 8 -8 17 -5 20 3 3 2 12 -2 19 -4 7 -9 19 -10 28 -3 16 -4 22 -23 90 -12 42
-47 157 -59 190 -3 8 -6 17 -7 20 -1 3 -5 14 -10 25 -4 11 -21 54 -37 95 -17
41 -34 81 -40 88 -6 6 -8 12 -4 12 10 0 -92 188 -152 280 -93 142 -191 252
-307 343 -77 61 -75 59 -110 77 -16 8 -32 17 -35 20 -8 9 -119 60 -190 87 -36
14 -74 29 -85 33 -19 8 -94 33 -105 35 -3 1 -32 9 -65 20 -33 10 -64 19 -70
19 -5 1 -23 5 -40 9 -62 15 -82 20 -175 38 -52 10 -115 21 -140 24 -25 2 -62
7 -82 11 -195 31 -670 36 -863 8 -16 -2 -52 -6 -80 -9 -27 -3 -61 -8 -75 -11
-14 -3 -34 -6 -45 -8 -23 -4 -103 -17 -125 -21 -8 -2 -57 -13 -108 -25 -51
-12 -99 -23 -105 -24 -7 -1 -18 -5 -24 -9 -7 -5 -23 -10 -35 -12 -38 -8 -213
-67 -223 -76 -5 -5 -17 -9 -27 -9 -10 0 -18 -5 -18 -11 0 -5 -4 -8 -8 -5 -4 2
-29 -6 -55 -19 -26 -14 -47 -21 -47 -17 0 4 -4 2 -8 -4 -4 -5 -34 -25 -67 -43
-33 -19 -82 -52 -110 -75 -64 -52 -193 -182 -225 -227 -27 -37 -29 -40 -65
-85 -13 -17 -22 -34 -18 -38 3 -3 1 -6 -5 -6 -7 0 -12 -5 -12 -12 0 -6 -6 -19
-14 -27 -46 -51 -220 -441 -241 -541 -2 -11 -28 -97 -42 -140 -8 -25 -17 -56
-19 -70 -3 -14 -7 -33 -10 -42 -3 -10 -7 -28 -10 -40 -2 -13 -6 -34 -9 -48 -4
-14 -8 -36 -11 -50 -2 -14 -9 -47 -15 -74 -7 -27 -13 -62 -14 -78 -2 -16 -5
-31 -7 -34 -9 -8 -267 110 -279 128 -3 6 -8 8 -10 7 -9 -6 -211 128 -304 202
-122 96 -125 100 -321 305 -12 12 -32 37 -45 56 -13 18 -31 41 -40 52 -10 10
-30 38 -45 62 -15 24 -32 44 -36 44 -4 0 -8 4 -8 9 0 4 -43 78 -96 162 -54 85
-105 168 -114 184 -168 291 -203 353 -211 370 -5 11 -34 65 -64 120 -55 100
-251 491 -297 595 -60 132 -88 199 -88 209 0 6 -4 11 -10 11 -5 0 -10 6 -10
13 0 11 -33 99 -83 217 -5 14 -11 30 -13 35 -2 11 -41 120 -54 150 -4 11 -18
54 -30 95 -12 41 -26 84 -31 95 -5 11 -11 29 -12 40 -2 11 -7 27 -10 35 -4 13
-16 58 -33 135 -3 11 -7 31 -10 45 -3 14 -9 41 -14 60 -4 19 -12 58 -16 85 -4
28 -8 57 -10 65 -3 19 -14 159 -18 230 -5 69 -16 120 -27 120 -5 0 -9 6 -9 13
0 16 -37 50 -77 71 -43 22 -119 27 -165 11z m4920 -3406 c26 -12 82 -39 125
-60 42 -21 77 -36 77 -34 0 2 27 -10 60 -26 33 -16 63 -29 65 -29 3 0 27 -9
53 -21 64 -29 79 -35 142 -59 30 -12 64 -26 75 -30 11 -4 45 -17 75 -28 30
-11 75 -28 100 -37 25 -9 64 -23 88 -31 23 -8 59 -26 80 -39 46 -30 128 -111
150 -147 9 -16 20 -28 25 -28 4 0 5 -4 2 -10 -3 -5 -2 -10 2 -10 10 0 94 -164
108 -210 1 -3 7 -25 14 -50 7 -25 16 -49 19 -55 4 -5 8 -21 10 -35 1 -14 7
-38 12 -55 59 -192 72 -701 24 -915 -3 -14 -8 -36 -10 -50 -3 -14 -12 -50 -21
-80 -9 -30 -17 -61 -19 -68 -1 -7 -11 -32 -22 -55 -11 -23 -23 -52 -26 -64 -4
-13 -11 -23 -16 -23 -5 0 -12 -9 -15 -21 -10 -31 -70 -99 -136 -154 -21 -18
-75 -45 -104 -52 -5 -1 -35 -9 -65 -18 -112 -31 -315 -15 -374 30 -28 22 -29
95 -1 195 5 19 38 105 58 150 26 61 121 223 178 306 63 91 76 123 74 180 -5
90 -66 165 -155 190 -21 6 -305 9 -720 9 l-685 -1 -45 -22 c-74 -38 -120 -121
-115 -205 3 -36 34 -107 60 -137 21 -24 82 -117 107 -163 12 -23 29 -50 37
-59 8 -10 10 -18 5 -18 -5 0 -3 -4 4 -9 7 -4 14 -14 16 -22 1 -8 8 -25 16 -39
37 -64 80 -201 84 -267 7 -101 -50 -132 -244 -134 -104 0 -176 14 -255 51 -64
31 -165 114 -165 136 0 8 -4 14 -9 14 -29 0 -132 250 -146 350 -5 40 -16 93
-20 99 -2 3 -7 47 -11 96 -14 158 -9 460 10 575 2 14 7 44 10 67 5 37 32 161
40 188 1 6 11 37 21 70 25 85 81 211 118 270 102 159 167 204 447 305 138 50
166 61 244 95 19 8 37 15 40 15 5 0 60 24 151 65 17 8 66 30 110 50 44 20 103
47 130 60 61 30 55 30 113 4z"/>
</g>
</svg>
