<?xml version="1.0"?>
<svg version="1.1" xmlns="http://www.w3.org/2000/svg" xmlns:xlink="http://www.w3.org/1999/xlink" width="512" height="512">
    <desc iVinci="yes" version="4.6" gridStep="20" showGrid="no" snapToGrid="no" codePlatform="0"/>
    <g id="Layer1" name="Layer 1" opacity="1">
        <g id="Shape1">
            <desc shapeID="1" type="0" basicInfo-basicType="0" basicInfo-roundedRectRadius="12" basicInfo-polygonSides="6" basicInfo-starPoints="5" bounding="rect(-92.6207,-92.1359,185.241,184.271)" text="" font-familyName="" font-pixelSize="20" font-bold="0" font-underline="0" font-alignment="1" strokeStyle="0" markerStart="0" markerEnd="0" shadowEnabled="0" shadowOffsetX="0" shadowOffsetY="2" shadowBlur="4" shadowOpacity="160" blurEnabled="0" blurRadius="4" transform="matrix(1,0,0,1,96.2838,101.041)" pers-center="0,0" pers-size="0,0" pers-start="0,0" pers-end="0,0" locked="0" mesh="" flag=""/>
            <path id="shapePath1" d="M29.6136,157.923 C26.4356,161.101 26.4356,166.412 29.6136,169.59 C36.6806,176.657 43.7476,183.725 50.8136,190.792 C53.9926,193.971 59.3026,193.971 62.4816,190.792 C74.8816,178.392 87.2816,165.992 99.6816,153.592 C103.478,157.388 107.273,161.183 111.069,164.979 C112.167,164.889 113.263,164.771 114.358,164.647 C115.664,164.499 116.968,164.343 118.271,164.172 C118.383,164.162 118.456,164.152 118.513,164.142 C118.668,164.122 118.876,164.092 119.162,164.052 C120.094,163.919 121.025,163.784 121.955,163.642 C132.638,162.005 143.255,159.858 153.712,157.122 C165.566,154.021 177.454,150.245 188.904,145.475 C175.387,131.958 161.87,118.441 148.353,104.925 C160.753,92.525 173.154,80.125 185.554,67.724 C188.733,64.546 188.733,59.235 185.554,56.057 C178.487,48.99 171.419,41.923 164.352,34.856 C161.173,31.677 155.864,31.677 152.685,34.856 C140.285,47.256 127.885,59.656 115.485,72.056 C95.2286,51.8 74.9726,31.544 54.7186,11.289 C51.5396,8.11 46.2296,8.11 43.0506,11.289 C30.7166,23.623 18.3816,35.958 6.0466,48.293 C2.8686,51.471 2.8686,56.782 6.0466,59.96 C26.3016,80.216 46.5576,100.471 66.8126,120.727 C54.4136,133.127 42.0126,145.526 29.6136,157.927 L29.6136,157.923 Z" style="stroke:none;fill-rule:evenodd;fill:#333333;fill-opacity:1;"/>
        </g>
        <g id="Shape2">
            <desc shapeID="2" type="0" basicInfo-basicType="0" basicInfo-roundedRectRadius="12" basicInfo-polygonSides="6" basicInfo-starPoints="5" bounding="rect(-92.9599,-92.1565,185.919,184.313)" text="" font-familyName="" font-pixelSize="20" font-bold="0" font-underline="0" font-alignment="1" strokeStyle="0" markerStart="0" markerEnd="0" shadowEnabled="0" shadowOffsetX="0" shadowOffsetY="2" shadowBlur="4" shadowOpacity="160" blurEnabled="0" blurRadius="4" transform="matrix(1,0,0,1,415.378,101.057)" pers-center="0,0" pers-size="0,0" pers-start="0,0" pers-end="0,0" locked="0" mesh="" flag=""/>
            <path id="shapePath2" d="M505.954,48.289 C493.618,35.954 481.284,23.619 468.95,11.285 C465.77,8.106 460.46,8.106 457.282,11.285 C437.026,31.54 416.77,51.795 396.514,72.051 C384.115,59.651 371.714,47.251 359.315,34.851 C356.137,31.672 350.827,31.672 347.647,34.851 C340.581,41.918 333.514,48.985 326.446,56.052 C323.268,59.23 323.268,64.541 326.446,67.719 C338.846,80.119 351.247,92.519 363.646,104.92 C349.904,118.663 336.161,132.406 322.418,146.149 C333.356,150.597 344.665,154.168 355.947,157.119 C366.404,159.855 377.021,162.002 387.704,163.639 C388.635,163.782 389.565,163.916 390.497,164.049 C390.783,164.089 390.99,164.119 391.145,164.139 C391.203,164.139 391.275,164.159 391.387,164.169 C392.69,164.34 393.994,164.496 395.3,164.644 C396.486,164.778 397.672,164.907 398.861,165.003 C399.476,165.053 400.052,165.16 400.595,165.31 C404.502,161.403 408.409,157.496 412.318,153.588 C424.718,165.988 437.119,178.388 449.519,190.788 C451.33,192.6 453.38,193.291 455.345,193.206 C457.316,193.296 459.37,192.604 461.187,190.788 C468.253,183.721 475.32,176.654 482.386,169.586 C485.564,166.408 485.564,161.097 482.386,157.919 C469.986,145.519 457.585,133.119 445.186,120.719 C465.441,100.464 485.697,80.208 505.953,59.952 C509.132,56.774 509.132,51.464 505.954,48.285 L505.954,48.289 Z" style="stroke:none;fill-rule:evenodd;fill:#333333;fill-opacity:1;"/>
        </g>
        <g id="Shape3">
            <desc shapeID="3" type="0" basicInfo-basicType="0" basicInfo-roundedRectRadius="12" basicInfo-polygonSides="6" basicInfo-starPoints="5" bounding="rect(-70.9388,-74.5866,141.878,149.173)" text="" font-familyName="" font-pixelSize="20" font-bold="0" font-underline="0" font-alignment="1" strokeStyle="0" markerStart="0" markerEnd="0" shadowEnabled="0" shadowOffsetX="0" shadowOffsetY="2" shadowBlur="4" shadowOpacity="160" blurEnabled="0" blurRadius="4" transform="matrix(1,0,0,1,86.6888,428.283)" pers-center="0,0" pers-size="0,0" pers-start="0,0" pers-end="0,0" locked="0" mesh="" flag=""/>
            <path id="shapePath3" d="M117.446,353.696 C106.524,364.398 95.6006,375.099 84.6786,385.801 C74.5096,395.764 64.3406,405.727 54.1716,415.692 C49.4326,420.335 45.0376,423.934 42.4446,430.096 C33.6826,450.922 24.9206,471.748 16.1586,492.575 C14.8126,495.773 16.9766,500.406 19.9496,501.892 C24.5456,504.189 28.4986,501.922 32.8226,500.345 C39.2616,497.995 45.7006,495.646 52.1396,493.294 C65.2736,488.5 78.4086,483.706 91.5426,478.911 C94.1996,477.942 96.8586,477.116 98.8616,475.005 C101.387,472.343 103.912,469.681 106.438,467.02 C116.558,456.354 126.677,445.687 136.797,435.021 C143.74,427.703 150.684,420.384 157.628,413.066 C140.561,396.76 127.247,375.274 117.446,353.696 Z" style="stroke:none;fill-rule:evenodd;fill:#333333;fill-opacity:1;"/>
        </g>
        <g id="Shape4">
            <desc shapeID="4" type="0" basicInfo-basicType="0" basicInfo-roundedRectRadius="12" basicInfo-polygonSides="6" basicInfo-starPoints="5" bounding="rect(-0.0248252,-0.0252225,0.0496513,0.0504453)" text="" font-familyName="" font-pixelSize="20" font-bold="0" font-underline="0" font-alignment="1" strokeStyle="0" markerStart="0" markerEnd="0" shadowEnabled="0" shadowOffsetX="0" shadowOffsetY="2" shadowBlur="4" shadowOpacity="160" blurEnabled="0" blurRadius="4" transform="matrix(1,0,0,1,126.32,180.23)" pers-center="0,0" pers-size="0,0" pers-start="0,0" pers-end="0,0" locked="0" mesh="" flag=""/>
            <path id="shapePath4" d="M126.345,180.255 C126.259,180.165 126.302,180.215 126.345,180.255 Z" style="stroke:none;fill-rule:evenodd;fill:#333333;fill-opacity:1;"/>
        </g>
        <g id="Shape5">
            <desc shapeID="5" type="0" basicInfo-basicType="0" basicInfo-roundedRectRadius="12" basicInfo-polygonSides="6" basicInfo-starPoints="5" bounding="rect(-142.92,-165.295,285.84,330.591)" text="" font-familyName="" font-pixelSize="20" font-bold="0" font-underline="0" font-alignment="1" strokeStyle="0" markerStart="0" markerEnd="0" shadowEnabled="0" shadowOffsetX="0" shadowOffsetY="2" shadowBlur="4" shadowOpacity="160" blurEnabled="0" blurRadius="4" transform="matrix(1,0,0,1,254.981,292.829)" pers-center="0,0" pers-size="0,0" pers-start="0,0" pers-end="0,0" locked="0" mesh="" flag=""/>
            <path id="shapePath5" d="M379.971,341.417 C387.22,321.933 390.978,301.415 393.531,280.818 C397.296,250.445 397.882,219.698 397.901,189.129 C397.901,184.332 394.127,181.275 389.651,180.879 C388.247,180.755 386.846,180.612 385.446,180.463 C373.489,178.774 362.019,175.764 350.415,172.728 C336.644,169.125 322.371,165.129 309.296,159.27 C292.144,151.226 275.792,141.423 260.816,129.811 C256.899,126.774 253.064,126.776 249.148,129.811 C234.572,141.107 218.692,150.688 202.048,158.612 C188.488,164.821 173.583,168.977 159.246,172.728 C148.299,175.591 137.617,178.565 126.347,180.254 C126.433,180.344 126.39,180.294 126.347,180.254 C124.34,180.486 122.329,180.699 120.311,180.879 C115.835,181.277 112.058,184.331 112.061,189.129 C112.081,219.72 112.765,250.418 116.426,280.818 C118.905,301.402 122.73,321.953 129.978,341.418 C129.968,341.418 129.961,341.438 129.953,341.438 C139.301,362.943 152.022,384.741 168.988,401.089 C168.998,401.089 169.002,401.079 169.009,401.069 C178.916,410.584 189.822,419.009 201.119,426.824 C208.877,432.19 216.878,437.199 224.953,442.072 C229.627,444.894 234.347,447.638 239.079,450.36 C243.489,452.896 249.757,458.125 254.983,458.125 C259.774,458.125 265.21,453.599 269.247,451.297 C274.022,448.574 278.768,445.799 283.489,442.984 C291.645,438.12 299.677,433.049 307.534,427.716 C319.317,419.719 330.677,410.959 340.948,401.072 C357.928,384.749 370.609,362.918 379.971,341.413 C379.986,341.423 380.001,341.443 379.971,341.413 L379.971,341.417 Z" style="stroke:none;fill-rule:evenodd;fill:#3d9970;fill-opacity:1;"/>
        </g>
        <g id="Shape6">
            <desc shapeID="6" type="0" basicInfo-basicType="0" basicInfo-roundedRectRadius="12" basicInfo-polygonSides="6" basicInfo-starPoints="5" bounding="rect(-70.9283,-74.6284,141.857,149.256)" text="" font-familyName="" font-pixelSize="20" font-bold="0" font-underline="0" font-alignment="1" strokeStyle="0" markerStart="0" markerEnd="0" shadowEnabled="0" shadowOffsetX="0" shadowOffsetY="2" shadowBlur="4" shadowOpacity="160" blurEnabled="0" blurRadius="4" transform="matrix(1,0,0,1,423.355,428.47)" pers-center="0,0" pers-size="0,0" pers-start="0,0" pers-end="0,0" locked="0" mesh="" flag=""/>
            <path id="shapePath6" d="M466.798,428.393 C464.19,422.19 457.667,417.532 452.959,412.92 C442.312,402.488 431.663,392.058 421.017,381.627 C411.562,372.365 402.108,363.104 392.654,353.842 C382.838,375.417 369.509,396.892 352.427,413.174 C363.18,424.508 373.933,435.84 384.687,447.173 C392.966,455.898 401.246,464.623 409.525,473.348 C414.527,478.619 421.884,480.178 428.591,482.627 C446.945,489.326 465.3,496.025 483.654,502.724 C489.156,504.733 496.199,498.27 493.802,492.576 C484.801,471.181 475.8,449.786 466.798,428.393 Z" style="stroke:none;fill-rule:evenodd;fill:#333333;fill-opacity:1;"/>
        </g>
        <g id="Shape7">
            <desc shapeID="7" type="2" basicInfo-basicType="0" basicInfo-roundedRectRadius="12" basicInfo-polygonSides="6" basicInfo-starPoints="5" bounding="rect(-131,-104.5,262,209)" text="RP" font-familyName="Helvetica" font-pixelSize="145" font-bold="0" font-underline="0" font-alignment="1" strokeStyle="0" markerStart="0" markerEnd="0" shadowEnabled="0" shadowOffsetX="0" shadowOffsetY="2" shadowBlur="4" shadowOpacity="160" blurEnabled="0" blurRadius="4" transform="matrix(1,0,0,1,252.95,297)" pers-center="0,0" pers-size="0,0" pers-start="0,0" pers-end="0,0" locked="0" mesh="" flag=""/>
            <path id="shapePath7" d="M211.649,279.783 C218.257,279.783 223.484,278.462 227.331,275.818 C231.178,273.175 233.102,268.408 233.102,261.517 C233.102,254.106 230.411,249.056 225.03,246.365 C222.151,244.949 218.304,244.241 213.49,244.241 L179.081,244.241 L179.081,279.783 L211.649,279.783 M164.991,232.134 L213.136,232.134 C221.065,232.134 227.603,233.291 232.748,235.604 C242.518,240.04 247.403,248.23 247.403,260.171 C247.403,266.402 246.117,271.5 243.545,275.464 C240.972,279.429 237.373,282.615 232.748,285.022 C236.807,286.674 239.863,288.846 241.916,291.536 C243.969,294.227 245.114,298.593 245.35,304.634 L245.846,318.582 C245.987,322.547 246.318,325.497 246.837,327.432 C247.687,330.736 249.197,332.86 251.368,333.804 L251.368,336.141 L234.093,336.141 C233.621,335.244 233.243,334.087 232.96,332.671 C232.677,331.255 232.441,328.518 232.252,324.458 L231.402,307.112 C231.072,300.315 228.547,295.761 223.827,293.448 C221.136,292.173 216.912,291.536 211.153,291.536 L179.081,291.536 L179.081,336.141 L164.991,336.141 L164.991,232.134 M269.34,232.134 L316.14,232.134 C325.391,232.134 332.849,234.742 338.513,239.958 C344.177,245.173 347.009,252.501 347.009,261.941 C347.009,270.06 344.484,277.128 339.433,283.146 C334.383,289.164 326.618,292.173 316.14,292.173 L283.43,292.173 L283.43,336.141 L269.34,336.141 L269.34,232.134 M324.282,246.436 C321.167,244.973 316.895,244.241 311.467,244.241 L283.43,244.241 L283.43,280.279 L311.467,280.279 C317.792,280.279 322.925,278.934 326.866,276.243 C330.807,273.553 332.778,268.809 332.778,262.012 C332.778,254.366 329.946,249.174 324.282,246.436 Z" style="stroke:none;fill-rule:nonzero;fill:#ffffff;fill-opacity:1;"/>
        </g>
    </g>
</svg>
